<?xml version="1.0" standalone="no"?>
<!DOCTYPE svg PUBLIC "-//W3C//DTD SVG 20010904//EN"
 "http://www.w3.org/TR/2001/REC-SVG-20010904/DTD/svg10.dtd">
<svg version="1.0" xmlns="http://www.w3.org/2000/svg"
 width="1024.000000pt" height="1024.000000pt" viewBox="0 0 1024.000000 1024.000000"
 preserveAspectRatio="xMidYMid meet">
<metadata>
Created by potrace 1.11, written by Peter Selinger 2001-2013
</metadata>
<g transform="translate(0.000000,1024.000000) scale(0.100000,-0.100000)"
fill="#000000" stroke="none">
<path d="M0 5120 l0 -5120 5120 0 5120 0 0 5120 0 5120 -5120 0 -5120 0 0
-5120z m9600 1600 l0 -2880 -320 0 -320 0 0 1280 0 1280 -320 0 -320 0 0 640
0 640 -320 0 -320 0 0 -640 0 -640 -320 0 -320 0 0 640 0 640 -320 0 -320 0 0
-640 0 -640 -320 0 -320 0 0 -1280 0 -1280 -320 0 -320 0 0 2560 0 2560 -1920
0 -1920 0 0 -2560 0 -2560 -320 0 -320 0 0 2880 0 2880 4480 0 4480 0 0 -2880z
m-7040 960 l0 -640 -320 0 -320 0 0 640 0 640 320 0 320 0 0 -640z m1920 0 l0
-640 -320 0 -320 0 0 640 0 640 320 0 320 0 0 -640z m-1920 -1920 l0 -640
-320 0 -320 0 0 640 0 640 320 0 320 0 0 -640z m1920 0 l0 -640 -320 0 -320 0
0 640 0 640 320 0 320 0 0 -640z m3840 -320 l0 -320 -960 0 -960 0 0 320 0
320 960 0 960 0 0 -320z m-4480 -1280 l0 -320 -640 0 -640 0 0 320 0 320 640
0 640 0 0 -320z m3840 0 l0 -320 -320 0 -320 0 0 320 0 320 320 0 320 0 0
-320z m-4480 -1280 l0 -320 -960 0 -960 0 0 -640 0 -640 960 0 960 0 0 -320 0
-320 -960 0 -960 0 0 320 0 320 -320 0 -320 0 0 640 0 640 320 0 320 0 0 320
0 320 960 0 960 0 0 -320z m1280 -960 l0 -1280 -320 0 -320 0 0 1280 0 1280
320 0 320 0 0 -1280z m2560 960 l0 -320 -320 0 -320 0 0 -960 0 -960 -320 0
-320 0 0 960 0 960 -320 0 -320 0 0 320 0 320 960 0 960 0 0 -320z m1280 -320
l0 -640 320 0 320 0 0 640 0 640 320 0 320 0 0 -640 0 -640 -320 0 -320 0 0
-640 0 -640 -320 0 -320 0 0 640 0 640 -320 0 -320 0 0 640 0 640 320 0 320 0
0 -640z"/>
</g>
</svg>
